<svg width="69" height="90" viewBox="0 0 69 90" fill="none" xmlns="http://www.w3.org/2000/svg">
<path d="M34 15.6318C34.0001 18.4309 34.8855 20.8054 36.668 22.7217C38.4499 24.6374 40.6476 25.6054 43.2324 25.6055C44.6058 25.6055 45.8909 25.2897 47.0791 24.6582C48.27 24.0252 49.314 23.0823 50.2139 21.8467L50.2129 21.8457L51.873 19.6182C56.9281 22.8647 60.9445 27.332 63.9209 33.0342C66.9727 38.8809 68.5 45.2354 68.5 52.1055C68.5 62.5687 65.1982 71.4068 58.6035 78.6504C52.0106 85.892 43.9856 89.5 34.5 89.5C25.0144 89.5 16.9894 85.892 10.3965 78.6504C3.80178 71.4068 0.500043 62.5687 0.5 52.1055C0.5 42.0302 3.57328 32.4556 9.73926 23.373C15.7622 14.5013 23.846 7.00387 34 0.881836V15.6318ZM34.1328 57.9229L27.9883 64.5547L27.9854 64.5586C27.1531 65.4728 26.5089 66.5121 26.0557 67.6738C25.602 68.8367 25.3751 70.0428 25.375 71.2891C25.375 73.9391 26.2661 76.2333 28.043 78.1436C29.8217 80.0555 31.9825 81.0264 34.5 81.0264C37.0175 81.0264 39.1783 80.0555 40.957 78.1436C42.7339 76.2333 43.625 73.9391 43.625 71.2891C43.625 69.9681 43.399 68.7393 42.9414 67.6084C42.4875 66.4867 41.8442 65.4697 41.0146 64.5586L41.0117 64.5547L34.8672 57.9229L34.5 57.5273L34.1328 57.9229ZM25.6426 17.3965C22.8208 20.0191 20.3219 22.744 18.1475 25.5703C15.9743 28.3949 14.1428 31.2627 12.6543 34.1738C11.1645 37.0874 10.0368 40.0634 9.27246 43.1016C8.50833 46.1391 8.125 49.1409 8.125 52.1055C8.12503 56.2736 8.89175 60.2266 10.4268 63.96C11.9615 67.6927 14.1554 70.9666 17.0068 73.7773L18.1328 74.8877L17.8496 73.3311C17.7818 72.9586 17.75 72.6343 17.75 72.3555V71.2891C17.75 68.8211 18.1714 66.515 19.0098 64.3662C19.8492 62.2148 21.0733 60.2535 22.6865 58.4814L22.6855 58.4805L34.5 45.7354L46.3135 58.4805V58.4814C47.9267 60.2535 49.1508 62.2148 49.9902 64.3662C50.8286 66.515 51.25 68.8211 51.25 71.2891V72.3555C51.25 72.6343 51.2182 72.9586 51.1504 73.3311L50.8672 74.8877L51.9932 73.7773C54.8446 70.9666 57.0385 67.6927 58.5732 63.96C60.1082 60.2266 60.875 56.2736 60.875 52.1055C60.875 48.1007 60.1998 44.3099 58.8477 40.7373C57.4958 37.1657 55.5406 33.973 52.9824 31.1631L52.6836 30.835L52.3223 31.0928C50.9238 32.0912 49.4593 32.8376 47.9297 33.334C46.3981 33.831 44.8327 34.0791 43.2324 34.0791C38.9128 34.079 35.1751 32.5155 31.9951 29.3682C28.8098 26.2154 26.9719 22.3366 26.4805 17.71L26.374 16.7168L25.6426 17.3965Z" fill="#FFA333" stroke="#FFC916"/>
</svg>
